control3min_grf.mot
version=1
nRows=17
nColumns 19
inDegrees=yes
endheader
time	1_ground_force_vx	1_ground_force_vy	1_ground_force_vz	1_ground_force_px	1_ground_force_py	1_ground_force_pz	1_ground_torque_x	1_ground_torque_y	1_ground_torque_z	2_ground_force_vx	2_ground_force_vy	2_ground_force_vz	2_ground_force_px	2_ground_force_py	2_ground_force_pz	2_ground_torque_x	2_ground_torque_y	2_ground_torque_z
            2.502500	            9.376257	           40.766237	           -5.534768	           -0.220641	            0.006352	           -0.434797	            0.016615	            0.072239	           -0.009808	            9.380721	           88.947701	            8.994934	           -0.197031	            0.005807	           -0.707483	           -0.044984	           -0.426533	           -0.043134
            2.503000	            9.192741	           39.685197	           -5.676518	           -0.219577	            0.006319	           -0.427175	            0.012415	            0.053594	           -0.007666	            9.065317	           85.448360	            8.794877	           -0.196825	            0.005802	           -0.705678	           -0.032140	           -0.302952	           -0.031182
            2.503500	            8.688783	           37.341843	           -5.731171	           -0.222750	            0.006326	           -0.428902	            0.015030	            0.064595	           -0.009914	            9.215213	           82.870457	            8.879475	           -0.196647	            0.005802	           -0.705535	           -0.031094	           -0.279625	           -0.029962
            2.504000	            8.919075	           35.177519	           -5.465880	           -0.221434	            0.006337	           -0.431466	            0.007716	            0.030434	           -0.004729	            9.173515	           81.398440	            8.498813	           -0.196945	            0.005806	           -0.707137	           -0.030911	           -0.274283	           -0.028638
            2.504500	            8.828045	           32.833655	           -5.383989	           -0.222578	            0.006357	           -0.436180	           -0.000376	           -0.001400	            0.000230	            9.230999	           78.452236	            8.488280	           -0.197361	            0.005801	           -0.705946	           -0.046941	           -0.398942	           -0.043164
            2.505000	            8.690045	           32.293814	           -5.615246	           -0.224327	            0.006320	           -0.427636	           -0.030035	           -0.111615	            0.019408	            9.615788	           75.691204	            8.525193	           -0.198141	            0.005796	           -0.705501	           -0.065140	           -0.512757	           -0.057752
            2.505500	            8.507425	           30.670601	           -5.438324	           -0.223239	            0.006333	           -0.430629	           -0.018493	           -0.066668	            0.011821	            9.764854	           73.298780	            8.235023	           -0.196743	            0.005807	           -0.707034	           -0.070975	           -0.532769	           -0.059856
            2.506000	            8.323876	           29.769827	           -5.579302	           -0.226120	            0.006304	           -0.423805	           -0.008310	           -0.029722	            0.005570	            9.725171	           71.274159	            7.899319	           -0.198334	            0.005799	           -0.706612	           -0.053784	           -0.394172	           -0.043686
            2.506500	            8.187656	           26.343573	           -5.318511	           -0.225870	            0.006338	           -0.431740	            0.029852	            0.096049	           -0.019391	            9.737737	           67.775835	            7.746050	           -0.197232	            0.005793	           -0.703823	           -0.046551	           -0.323997	           -0.037029
            2.507000	            8.050408	           24.180555	           -5.373301	           -0.224395	            0.006361	           -0.437174	            0.038744	            0.116372	           -0.025860	            9.459817	           66.855258	            7.414388	           -0.199354	            0.005800	           -0.707859	           -0.041596	           -0.293973	           -0.032602
            2.507500	            7.866517	           23.280371	           -5.651847	           -0.223040	            0.006349	           -0.434252	            0.001133	            0.003352	           -0.000814	            9.795742	           64.646662	            7.406363	           -0.198114	            0.005799	           -0.706356	           -0.053168	           -0.350883	           -0.040200
            2.508000	            7.913405	           21.296278	           -5.385327	           -0.229163	            0.006353	           -0.435552	           -0.002396	           -0.006448	            0.001630	            9.993693	           61.701627	            7.208058	           -0.198680	            0.005791	           -0.704634	           -0.077478	           -0.478352	           -0.055882
            2.508500	            7.455221	           20.574930	           -5.341426	           -0.227325	            0.006340	           -0.432249	           -0.031427	           -0.086733	            0.022517	           10.002457	           59.306695	            7.481085	           -0.198829	            0.005789	           -0.704245	           -0.081529	           -0.483404	           -0.060978
            2.509000	            7.089800	           17.689232	           -5.031891	           -0.228185	            0.006401	           -0.446656	            0.023528	            0.058704	           -0.016699	           10.061229	           55.992529	            7.375382	           -0.197397	            0.005786	           -0.701819	           -0.092845	           -0.516700	           -0.068060
            2.509500	            6.906560	           16.968134	           -5.034528	           -0.233223	            0.006355	           -0.436132	            0.039403	            0.096805	           -0.028723	           10.204252	           55.257949	            6.950341	           -0.199495	            0.005783	           -0.703325	           -0.085571	           -0.463385	           -0.058285
            2.510000	            6.722490	           16.428678	           -5.357383	           -0.235759	            0.006315	           -0.426863	            0.040159	            0.098141	           -0.032004	           10.118404	           53.048835	            6.660928	           -0.201492	            0.005778	           -0.703712	           -0.075093	           -0.393696	           -0.049433
            2.510500	            6.677854	           14.804705	           -4.997379	           -0.237494	            0.006298	           -0.423011	            0.041028	            0.090958	           -0.030703	            9.888142	           51.943100	            6.657085	           -0.201730	            0.005784	           -0.705719	           -0.060192	           -0.316194	           -0.040524
